<?xml version="1.0" encoding="utf-8"?>
<!-- Generator: Adobe Illustrator 16.0.0, SVG Export Plug-In . SVG Version: 6.00 Build 0)  -->
<!DOCTYPE svg PUBLIC "-//W3C//DTD SVG 1.1//EN" "http://www.w3.org/Graphics/SVG/1.1/DTD/svg11.dtd">
<svg version="1.1" id="Capa_1" xmlns="http://www.w3.org/2000/svg" xmlns:xlink="http://www.w3.org/1999/xlink" x="0px" y="0px"
	 width="1080px" height="1080px" viewBox="0 0 1080 1080" enable-background="new 0 0 1080 1080" xml:space="preserve">
<g>
	<path fill="#5B4824" d="M247.424,667.152c0-0.423,0.115-0.76,0.347-1.012c0.231-0.252,0.559-0.378,0.981-0.378h20.05
		c1.771,0,3.442,0.338,5.013,1.012c1.57,0.675,2.944,1.601,4.122,2.778s2.108,2.557,2.793,4.137
		c0.685,1.581,1.027,3.276,1.027,5.088c0,1.51-0.237,2.914-0.709,4.213c-0.473,1.298-1.143,2.461-2.008,3.487
		c1.45,1.329,2.597,2.909,3.442,4.741c0.846,1.832,1.269,3.774,1.269,5.827c0,1.833-0.353,3.568-1.057,5.209
		c-0.705,1.642-1.656,3.08-2.854,4.318s-2.597,2.22-4.197,2.944s-3.287,1.087-5.058,1.087h-21.832c-0.403,0-0.725-0.105-0.966-0.317
		c-0.242-0.211-0.362-0.538-0.362-0.981V667.152z M270.162,679.05c0-0.604-0.111-1.168-0.333-1.691
		c-0.223-0.523-0.535-0.986-0.939-1.389c-0.404-0.403-0.888-0.72-1.454-0.951c-0.565-0.231-1.181-0.348-1.847-0.348h-6.479v8.757
		h6.389c0.686,0,1.317-0.105,1.893-0.317c0.575-0.211,1.064-0.513,1.468-0.905s0.722-0.855,0.954-1.39
		C270.046,680.282,270.162,679.694,270.162,679.05z M271.762,696.594c0-0.604-0.116-1.208-0.348-1.813
		c-0.232-0.604-0.555-1.142-0.969-1.615c-0.414-0.473-0.908-0.86-1.483-1.162c-0.575-0.303-1.195-0.453-1.861-0.453h-7.991v10.085
		h7.991c0.666,0,1.281-0.141,1.846-0.422c0.565-0.282,1.06-0.659,1.483-1.133c0.423-0.473,0.751-1.012,0.983-1.615
		C271.646,697.861,271.762,697.238,271.762,696.594z"/>
	<path fill="#5B4824" d="M330.433,710.095c-0.262,0.222-0.539,0.362-0.831,0.423c-0.292,0.06-0.569,0.09-0.831,0.09h-4.56
		c-0.362,0-0.674-0.064-0.936-0.196c-0.262-0.13-0.483-0.307-0.664-0.527s-0.333-0.472-0.453-0.753s-0.222-0.572-0.302-0.873
		l-0.634-2.951c-0.302,0.622-0.806,1.279-1.51,1.972c-0.705,0.693-1.576,1.33-2.612,1.913c-1.037,0.582-2.23,1.063-3.579,1.445
		c-1.349,0.381-2.818,0.571-4.409,0.571c-2.295,0-4.328-0.442-6.1-1.328s-3.266-2.094-4.484-3.624
		c-1.218-1.529-2.139-3.316-2.763-5.359s-0.936-4.223-0.936-6.537V674.58c0-0.765,0.166-1.344,0.498-1.736
		c0.333-0.393,0.861-0.589,1.585-0.589h6.976c0.865,0,1.459,0.146,1.781,0.438c0.322,0.293,0.483,0.861,0.483,1.708v19.679
		c0,0.866,0.166,1.688,0.498,2.464c0.332,0.776,0.78,1.461,1.344,2.056c0.563,0.595,1.223,1.063,1.978,1.405s1.555,0.514,2.4,0.514
		c0.725,0,1.51-0.12,2.355-0.362c0.845-0.242,1.63-0.62,2.355-1.134c0.725-0.514,1.329-1.174,1.812-1.979
		c0.483-0.807,0.725-1.774,0.725-2.902v-19.649c0-0.342,0.065-0.685,0.196-1.027s0.327-0.604,0.589-0.786
		c0.262-0.161,0.508-0.271,0.74-0.332s0.499-0.091,0.8-0.091h6.824c0.866,0,1.49,0.212,1.873,0.635
		c0.382,0.423,0.574,0.986,0.574,1.69v33.793c0,0.383-0.086,0.734-0.257,1.057c-0.171,0.322-0.408,0.573-0.709,0.755
		L330.433,710.095z"/>
	<path fill="#5B4824" d="M350.241,698.677c0.543,0.544,1.132,1.002,1.767,1.374c0.634,0.373,1.243,0.675,1.827,0.906
		s1.097,0.397,1.54,0.498s0.745,0.151,0.906,0.151c0.382,0,0.871-0.016,1.465-0.046c0.593-0.03,1.163-0.121,1.706-0.271
		c0.543-0.151,1.012-0.397,1.404-0.74c0.393-0.342,0.589-0.825,0.589-1.449c0-0.563-0.111-1.012-0.332-1.344
		c-0.222-0.332-0.543-0.613-0.966-0.846c-0.423-0.23-0.941-0.438-1.555-0.619c-0.614-0.181-1.304-0.393-2.068-0.634
		c-2.416-0.644-4.409-1.419-5.979-2.325c-1.57-0.905-2.813-1.917-3.729-3.034c-0.917-1.117-1.555-2.32-1.917-3.608
		s-0.543-2.647-0.543-4.077c0-1.671,0.332-3.19,0.997-4.56c0.664-1.368,1.61-2.541,2.838-3.518c1.228-0.977,2.697-1.731,4.409-2.265
		c1.71-0.533,3.613-0.801,5.707-0.801c1.268,0,2.456,0.106,3.563,0.317c1.107,0.212,2.164,0.544,3.171,0.996
		c1.006,0.453,1.988,1.037,2.944,1.752s1.907,1.565,2.854,2.552c0.342,0.402,0.518,0.78,0.528,1.132
		c0.01,0.353-0.216,0.73-0.679,1.133c-0.785,0.645-1.535,1.278-2.25,1.902c-0.715,0.624-1.455,1.318-2.22,2.083
		c-0.241,0.202-0.483,0.328-0.725,0.378c-0.242,0.051-0.473,0.045-0.694-0.016c-0.222-0.06-0.433-0.16-0.634-0.302
		c-0.201-0.141-0.382-0.312-0.543-0.513c-0.705-0.785-1.51-1.314-2.416-1.586c-0.906-0.271-1.751-0.407-2.537-0.407
		c-0.987,0-1.771,0.171-2.355,0.513c-0.584,0.343-0.856,0.866-0.815,1.57c0.04,0.524,0.236,0.932,0.588,1.224
		s0.785,0.528,1.299,0.709c0.513,0.182,1.057,0.328,1.63,0.438s1.102,0.236,1.585,0.377c1.812,0.584,3.473,1.219,4.982,1.902
		c1.51,0.685,2.818,1.525,3.925,2.521c1.107,0.996,1.968,2.189,2.582,3.578c0.614,1.39,0.921,3.08,0.921,5.073
		s-0.398,3.774-1.193,5.345c-0.795,1.57-1.887,2.889-3.276,3.956c-1.389,1.066-3.035,1.882-4.937,2.445s-3.951,0.846-6.145,0.846
		c-1.249,0-2.517-0.111-3.805-0.332c-1.289-0.222-2.537-0.579-3.744-1.072c-1.208-0.493-2.355-1.127-3.442-1.902
		c-1.087-0.774-2.053-1.716-2.899-2.823c-0.222-0.281-0.388-0.578-0.498-0.891c-0.111-0.313-0.162-0.619-0.151-0.921
		s0.07-0.579,0.181-0.831c0.11-0.251,0.287-0.468,0.529-0.648l3.895-3.896c0.483-0.402,0.911-0.544,1.284-0.423
		C349.179,697.771,349.657,698.113,350.241,698.677z"/>
	<path fill="#5B4824" d="M385.479,659.331c0-0.846,0.181-1.444,0.543-1.797c0.362-0.352,0.926-0.528,1.691-0.528h7.005
		c0.705,0,1.273,0.177,1.706,0.528c0.433,0.353,0.649,0.951,0.649,1.797v5.889c0,0.241-0.056,0.503-0.167,0.785
		s-0.267,0.554-0.468,0.815c-0.202,0.262-0.448,0.478-0.74,0.648c-0.292,0.172-0.619,0.257-0.981,0.257h-7.005
		c-1.49,0-2.235-0.835-2.235-2.506V659.331z M385.479,674.61c0-0.644,0.181-1.197,0.543-1.66s0.926-0.695,1.691-0.695h6.915
		c0.242,0,0.503,0.056,0.785,0.166c0.282,0.111,0.543,0.272,0.785,0.483c0.242,0.212,0.448,0.458,0.619,0.74
		c0.171,0.282,0.257,0.604,0.257,0.966v33.669c0,0.766-0.211,1.344-0.634,1.736s-1.027,0.589-1.812,0.589h-6.915
		c-1.49,0-2.235-0.774-2.235-2.325V674.61z"/>
	<path fill="#5B4824" d="M411.146,672.796c0.261-0.222,0.538-0.363,0.831-0.423c0.292-0.061,0.568-0.091,0.83-0.091h4.56
		c0.362,0,0.674,0.065,0.936,0.196s0.483,0.307,0.665,0.527c0.181,0.222,0.327,0.473,0.438,0.754
		c0.11,0.281,0.216,0.571,0.317,0.872l0.634,2.65c0.302-0.622,0.79-1.265,1.464-1.927c0.674-0.663,1.51-1.265,2.506-1.807
		s2.148-0.989,3.458-1.34c1.308-0.352,2.768-0.527,4.378-0.527c2.295,0,4.343,0.441,6.145,1.324c1.801,0.884,3.332,2.088,4.59,3.614
		c1.258,1.525,2.214,3.309,2.869,5.349c0.654,2.04,0.981,4.218,0.981,6.532v19.778c0,0.766-0.166,1.344-0.499,1.736
		c-0.332,0.393-0.86,0.589-1.585,0.589h-6.976c-0.866,0-1.46-0.146-1.782-0.438c-0.322-0.292-0.483-0.861-0.483-1.706v-19.658
		c0-0.865-0.196-1.686-0.589-2.461c-0.393-0.774-0.911-1.459-1.555-2.054c-0.645-0.593-1.374-1.062-2.189-1.403
		c-0.815-0.343-1.646-0.514-2.491-0.514c-0.725,0-1.465,0.161-2.22,0.483s-1.449,0.77-2.083,1.344
		c-0.634,0.573-1.167,1.248-1.601,2.022c-0.433,0.775-0.679,1.616-0.74,2.521v19.628c0,0.343-0.065,0.685-0.196,1.026
		c-0.131,0.343-0.327,0.604-0.589,0.785c-0.262,0.161-0.508,0.271-0.74,0.332s-0.498,0.091-0.8,0.091h-6.825
		c-0.866,0-1.49-0.211-1.872-0.634c-0.383-0.423-0.574-0.986-0.574-1.691v-33.768c0-0.381,0.085-0.732,0.257-1.054
		c0.17-0.321,0.408-0.572,0.709-0.753L411.146,672.796z"/>
	<path fill="#5B4824" d="M492.162,706.015c-1.771,1.631-3.765,2.904-5.979,3.82c-2.215,0.915-4.56,1.373-7.036,1.373
		c-2.758,0-5.365-0.503-7.821-1.51c-2.457-1.006-4.61-2.4-6.462-4.182c-1.853-1.782-3.322-3.881-4.409-6.296
		c-1.087-2.416-1.631-5.043-1.631-7.882c0-1.771,0.216-3.487,0.649-5.148c0.433-1.66,1.046-3.216,1.842-4.665
		s1.761-2.782,2.899-4.001c1.137-1.218,2.411-2.26,3.82-3.125c1.409-0.865,2.939-1.54,4.59-2.023
		c1.65-0.483,3.392-0.725,5.224-0.725c1.67,0,3.292,0.222,4.861,0.664c1.57,0.443,3.045,1.067,4.424,1.872
		c1.379,0.806,2.642,1.771,3.79,2.899c1.147,1.127,2.134,2.36,2.959,3.699c0.825,1.339,1.464,2.768,1.917,4.287
		c0.453,1.521,0.679,3.086,0.679,4.696c0,1.047-0.015,1.902-0.045,2.566c-0.03,0.664-0.187,1.192-0.468,1.585
		c-0.282,0.393-0.75,0.664-1.404,0.815s-1.615,0.227-2.884,0.227h-21.741c0.201,1.288,0.609,2.365,1.223,3.23
		c0.614,0.866,1.323,1.556,2.129,2.069c0.805,0.513,1.661,0.881,2.566,1.102c0.906,0.222,1.761,0.332,2.567,0.332
		c0.725,0,1.469-0.075,2.234-0.227c0.765-0.15,1.505-0.352,2.22-0.604c0.714-0.252,1.369-0.544,1.962-0.876s1.072-0.679,1.435-1.042
		c0.322-0.261,0.599-0.457,0.83-0.588s0.478-0.196,0.74-0.196c0.261,0,0.528,0.09,0.8,0.271c0.272,0.181,0.579,0.443,0.921,0.785
		l3.201,3.623c0.221,0.262,0.362,0.499,0.423,0.71c0.06,0.211,0.09,0.428,0.09,0.649c0,0.402-0.111,0.75-0.332,1.042
		C492.726,705.537,492.464,705.793,492.162,706.015z M477.638,680.861c-0.785,0-1.545,0.156-2.28,0.468
		c-0.735,0.313-1.424,0.73-2.068,1.253c-0.645,0.524-1.223,1.117-1.736,1.782c-0.514,0.664-0.932,1.339-1.253,2.022h15.431
		c-0.423-0.785-0.881-1.51-1.374-2.174c-0.494-0.664-1.057-1.248-1.691-1.751c-0.634-0.503-1.359-0.896-2.174-1.178
		S478.725,680.861,477.638,680.861z"/>
	<path fill="#5B4824" d="M514.567,698.677c0.543,0.544,1.132,1.002,1.767,1.374c0.634,0.373,1.243,0.675,1.827,0.906
		s1.097,0.397,1.54,0.498s0.745,0.151,0.906,0.151c0.382,0,0.871-0.016,1.465-0.046c0.593-0.03,1.163-0.121,1.706-0.271
		c0.543-0.151,1.012-0.397,1.404-0.74c0.393-0.342,0.589-0.825,0.589-1.449c0-0.563-0.111-1.012-0.332-1.344
		c-0.222-0.332-0.543-0.613-0.966-0.846c-0.423-0.23-0.941-0.438-1.555-0.619c-0.614-0.181-1.304-0.393-2.068-0.634
		c-2.416-0.644-4.409-1.419-5.979-2.325c-1.57-0.905-2.813-1.917-3.729-3.034c-0.917-1.117-1.555-2.32-1.917-3.608
		s-0.543-2.647-0.543-4.077c0-1.671,0.332-3.19,0.997-4.56c0.664-1.368,1.61-2.541,2.838-3.518c1.228-0.977,2.697-1.731,4.409-2.265
		c1.71-0.533,3.613-0.801,5.707-0.801c1.268,0,2.456,0.106,3.563,0.317c1.107,0.212,2.164,0.544,3.171,0.996
		c1.006,0.453,1.988,1.037,2.944,1.752s1.907,1.565,2.854,2.552c0.342,0.402,0.518,0.78,0.528,1.132
		c0.01,0.353-0.216,0.73-0.679,1.133c-0.785,0.645-1.535,1.278-2.25,1.902c-0.715,0.624-1.455,1.318-2.22,2.083
		c-0.241,0.202-0.483,0.328-0.725,0.378c-0.242,0.051-0.473,0.045-0.694-0.016c-0.222-0.06-0.433-0.16-0.634-0.302
		c-0.201-0.141-0.382-0.312-0.543-0.513c-0.705-0.785-1.51-1.314-2.416-1.586c-0.906-0.271-1.751-0.407-2.537-0.407
		c-0.987,0-1.771,0.171-2.355,0.513c-0.584,0.343-0.856,0.866-0.815,1.57c0.04,0.524,0.236,0.932,0.588,1.224
		s0.785,0.528,1.299,0.709c0.513,0.182,1.057,0.328,1.63,0.438s1.102,0.236,1.585,0.377c1.812,0.584,3.473,1.219,4.982,1.902
		c1.51,0.685,2.818,1.525,3.925,2.521c1.107,0.996,1.968,2.189,2.582,3.578c0.614,1.39,0.921,3.08,0.921,5.073
		s-0.398,3.774-1.193,5.345c-0.795,1.57-1.887,2.889-3.276,3.956c-1.389,1.066-3.035,1.882-4.937,2.445s-3.951,0.846-6.145,0.846
		c-1.249,0-2.517-0.111-3.805-0.332c-1.289-0.222-2.537-0.579-3.744-1.072c-1.208-0.493-2.355-1.127-3.442-1.902
		c-1.087-0.774-2.053-1.716-2.899-2.823c-0.222-0.281-0.388-0.578-0.498-0.891c-0.111-0.313-0.162-0.619-0.151-0.921
		s0.07-0.579,0.181-0.831c0.11-0.251,0.287-0.468,0.529-0.648l3.895-3.896c0.483-0.402,0.911-0.544,1.284-0.423
		C513.505,697.771,513.983,698.113,514.567,698.677z"/>
	<path fill="#5B4824" d="M555.574,698.677c0.543,0.544,1.132,1.002,1.766,1.374c0.635,0.373,1.243,0.675,1.827,0.906
		s1.097,0.397,1.54,0.498c0.442,0.101,0.744,0.151,0.906,0.151c0.382,0,0.87-0.016,1.464-0.046s1.163-0.121,1.706-0.271
		c0.544-0.151,1.012-0.397,1.404-0.74c0.393-0.342,0.589-0.825,0.589-1.449c0-0.563-0.11-1.012-0.332-1.344
		s-0.544-0.613-0.966-0.846c-0.423-0.23-0.941-0.438-1.556-0.619c-0.614-0.181-1.304-0.393-2.068-0.634
		c-2.416-0.644-4.408-1.419-5.979-2.325c-1.57-0.905-2.813-1.917-3.729-3.034s-1.555-2.32-1.918-3.608
		c-0.362-1.288-0.543-2.647-0.543-4.077c0-1.671,0.332-3.19,0.996-4.56c0.665-1.368,1.61-2.541,2.839-3.518
		c1.228-0.977,2.697-1.731,4.408-2.265s3.613-0.801,5.707-0.801c1.269,0,2.456,0.106,3.563,0.317
		c1.107,0.212,2.164,0.544,3.171,0.996c1.006,0.453,1.987,1.037,2.944,1.752c0.955,0.715,1.906,1.565,2.854,2.552
		c0.342,0.402,0.518,0.78,0.528,1.132c0.01,0.353-0.217,0.73-0.68,1.133c-0.785,0.645-1.535,1.278-2.25,1.902
		s-1.454,1.318-2.219,2.083c-0.242,0.202-0.483,0.328-0.725,0.378c-0.242,0.051-0.474,0.045-0.695-0.016
		c-0.222-0.06-0.433-0.16-0.634-0.302c-0.201-0.141-0.383-0.312-0.543-0.513c-0.705-0.785-1.511-1.314-2.416-1.586
		c-0.906-0.271-1.752-0.407-2.537-0.407c-0.986,0-1.771,0.171-2.354,0.513c-0.584,0.343-0.856,0.866-0.815,1.57
		c0.04,0.524,0.236,0.932,0.589,1.224c0.352,0.292,0.785,0.528,1.298,0.709c0.514,0.182,1.058,0.328,1.631,0.438
		c0.574,0.11,1.103,0.236,1.585,0.377c1.813,0.584,3.473,1.219,4.982,1.902c1.51,0.685,2.818,1.525,3.926,2.521
		s1.968,2.189,2.582,3.578c0.613,1.39,0.921,3.08,0.921,5.073s-0.397,3.774-1.192,5.345c-0.796,1.57-1.888,2.889-3.276,3.956
		c-1.39,1.066-3.035,1.882-4.938,2.445s-3.951,0.846-6.145,0.846c-1.249,0-2.517-0.111-3.805-0.332
		c-1.289-0.222-2.537-0.579-3.745-1.072c-1.207-0.493-2.354-1.127-3.442-1.902c-1.087-0.774-2.053-1.716-2.898-2.823
		c-0.222-0.281-0.388-0.578-0.498-0.891c-0.111-0.313-0.161-0.619-0.151-0.921s0.07-0.579,0.182-0.831
		c0.11-0.251,0.286-0.468,0.528-0.648l3.896-3.896c0.482-0.402,0.91-0.544,1.283-0.423
		C554.512,697.771,554.989,698.113,555.574,698.677z"/>
	<path fill="#5B4824" d="M642.81,675.547c-0.282-0.182-0.745-0.533-1.389-1.058c-0.645-0.522-1.435-1.057-2.371-1.6
		c-0.936-0.544-1.988-1.031-3.155-1.465c-1.168-0.433-2.426-0.649-3.774-0.649c-1.591,0-2.959,0.191-4.106,0.574
		s-2.095,0.891-2.839,1.524c-0.745,0.635-1.294,1.35-1.646,2.145c-0.353,0.795-0.528,1.596-0.528,2.4
		c0,1.128,0.372,2.073,1.117,2.838c0.744,0.766,1.73,1.43,2.959,1.993c1.228,0.564,2.622,1.072,4.183,1.525
		c1.56,0.453,3.15,0.931,4.771,1.434c1.62,0.504,3.211,1.067,4.771,1.691c1.56,0.624,2.954,1.399,4.182,2.325
		s2.215,2.033,2.959,3.321c0.745,1.289,1.118,2.849,1.118,4.681c0,2.113-0.438,4.031-1.314,5.752
		c-0.875,1.722-2.073,3.191-3.593,4.409c-1.521,1.218-3.307,2.159-5.36,2.823c-2.053,0.664-4.257,0.996-6.612,0.996
		c-1.57,0-3.126-0.176-4.666-0.528c-1.54-0.352-3.02-0.865-4.438-1.54c-1.419-0.674-2.743-1.494-3.971-2.461
		c-1.229-0.966-2.325-2.073-3.291-3.321c-0.263-0.322-0.389-0.645-0.378-0.967c0.01-0.321,0.186-0.623,0.528-0.905l2.386-1.993
		c0.342-0.281,0.674-0.407,0.996-0.377c0.322,0.029,0.614,0.206,0.876,0.528l0.393,0.393c0.846,0.946,1.807,1.767,2.884,2.461
		c1.076,0.694,2.153,1.268,3.23,1.721s2.109,0.79,3.096,1.012s1.821,0.332,2.506,0.332c1.228,0,2.486-0.161,3.774-0.483
		c1.288-0.321,2.466-0.814,3.533-1.479c1.067-0.664,1.942-1.504,2.627-2.521c0.685-1.016,1.027-2.209,1.027-3.578
		c0-1.147-0.338-2.118-1.012-2.914c-0.675-0.795-1.586-1.489-2.733-2.083s-2.491-1.127-4.031-1.601
		c-1.54-0.473-3.186-0.971-4.937-1.495c-2.416-0.704-4.489-1.443-6.221-2.219s-3.155-1.631-4.272-2.567
		c-1.117-0.936-1.938-1.982-2.461-3.14c-0.524-1.157-0.785-2.461-0.785-3.911c0-1.831,0.367-3.507,1.102-5.027
		c0.735-1.52,1.776-2.833,3.126-3.94c1.349-1.107,2.974-1.968,4.877-2.582c1.902-0.613,4.03-0.921,6.386-0.921
		c1.269,0,2.587,0.161,3.956,0.483s2.702,0.77,4.001,1.344c1.299,0.573,2.517,1.258,3.653,2.053
		c1.138,0.796,2.119,1.677,2.944,2.643c0.282,0.302,0.428,0.619,0.438,0.951c0.01,0.332-0.146,0.649-0.469,0.951l-2.144,2.054
		c-0.322,0.302-0.649,0.442-0.981,0.423C643.398,675.979,643.091,675.829,642.81,675.547z"/>
	<path fill="#5B4824" d="M689.765,701.878c0.141-0.121,0.297-0.246,0.468-0.378c0.171-0.131,0.353-0.227,0.544-0.286
		c0.191-0.061,0.382-0.061,0.573,0c0.191,0.06,0.388,0.222,0.589,0.482c0.402,0.544,0.729,0.987,0.981,1.329
		c0.252,0.343,0.458,0.614,0.619,0.815c0.161,0.222,0.282,0.383,0.362,0.482c0.101,0.162,0.187,0.322,0.257,0.483
		s0.085,0.338,0.045,0.528c-0.04,0.191-0.146,0.403-0.316,0.635c-0.172,0.231-0.438,0.488-0.801,0.77
		c-0.865,0.685-1.767,1.304-2.702,1.857c-0.937,0.554-1.918,1.031-2.944,1.435c-1.026,0.402-2.109,0.714-3.246,0.936
		c-1.138,0.222-2.34,0.332-3.608,0.332c-1.792,0-3.523-0.236-5.193-0.709c-1.672-0.474-3.246-1.147-4.727-2.023
		c-1.479-0.876-2.828-1.918-4.046-3.125c-1.218-1.208-2.27-2.547-3.155-4.017c-0.887-1.469-1.57-3.045-2.054-4.726
		s-0.725-3.428-0.725-5.239s0.241-3.558,0.725-5.239c0.483-1.681,1.167-3.256,2.054-4.726c0.886-1.469,1.938-2.808,3.155-4.016
		s2.566-2.25,4.046-3.126c1.48-0.875,3.055-1.55,4.727-2.022c1.67-0.473,3.401-0.71,5.193-0.71c1.127,0,2.25,0.105,3.367,0.317
		c1.117,0.211,2.193,0.503,3.23,0.875c1.037,0.373,2.013,0.811,2.93,1.313c0.915,0.504,1.736,1.048,2.461,1.631
		c0.141,0.121,0.307,0.257,0.498,0.408c0.191,0.15,0.352,0.322,0.483,0.513c0.13,0.191,0.216,0.403,0.256,0.635
		s-0.01,0.479-0.15,0.739l-2.204,2.899c-0.524,0.685-1.128,0.674-1.813-0.03c-0.543-0.563-1.167-1.072-1.872-1.525
		s-1.46-0.846-2.265-1.178c-0.806-0.332-1.641-0.589-2.506-0.77c-0.866-0.182-1.722-0.272-2.567-0.272
		c-1.771,0-3.482,0.383-5.133,1.147c-1.651,0.766-3.11,1.803-4.379,3.11c-1.268,1.31-2.285,2.829-3.05,4.56
		c-0.765,1.732-1.147,3.554-1.147,5.466c0,1.933,0.378,3.76,1.133,5.48c0.755,1.722,1.767,3.227,3.034,4.515
		c1.269,1.288,2.733,2.31,4.394,3.064c1.661,0.755,3.387,1.133,5.179,1.133c1.107,0,2.108-0.105,3.005-0.317
		c0.896-0.211,1.711-0.493,2.446-0.846c0.734-0.352,1.414-0.755,2.038-1.207C688.576,702.829,689.181,702.361,689.765,701.878z"/>
	<path fill="#5B4824" d="M713.227,676.12c0.563-0.704,1.167-1.333,1.812-1.887s1.363-1.021,2.159-1.404
		c0.795-0.383,1.695-0.675,2.702-0.876s2.175-0.302,3.503-0.302c2.255,0,4.313,0.428,6.176,1.283
		c1.861,0.855,3.462,2.023,4.801,3.503s2.375,3.216,3.11,5.209c0.734,1.993,1.103,4.127,1.103,6.401v20.503
		c0,0.685-0.177,1.198-0.529,1.54c-0.352,0.343-0.8,0.514-1.344,0.514h-2.234c-0.745,0-1.223-0.151-1.434-0.453
		c-0.212-0.302-0.317-0.805-0.317-1.51v-20.594c0-1.208-0.207-2.44-0.619-3.699c-0.413-1.258-1.026-2.4-1.842-3.427
		c-0.815-1.027-1.832-1.862-3.05-2.507c-1.219-0.644-2.622-0.966-4.213-0.966c-1.147,0-2.305,0.206-3.473,0.619
		c-1.167,0.412-2.219,1.021-3.155,1.826c-0.936,0.806-1.696,1.802-2.279,2.99c-0.584,1.188-0.876,2.547-0.876,4.076v22.314
		c0,0.887-0.443,1.329-1.329,1.329h-3.109c-0.947,0-1.42-0.442-1.42-1.329V662.17c0-0.402,0.131-0.725,0.393-0.967
		c0.262-0.241,0.574-0.362,0.937-0.362h3.141c0.422,0,0.759,0.132,1.011,0.393c0.252,0.262,0.378,0.574,0.378,0.937V676.12z"/>
	<path fill="#5B4824" d="M751.455,691.49c0-2.718,0.528-5.279,1.586-7.685s2.488-4.515,4.291-6.326
		c1.804-1.813,3.903-3.241,6.301-4.288s4.946-1.57,7.646-1.57c1.793,0,3.53,0.237,5.213,0.71c1.682,0.473,3.259,1.147,4.729,2.022
		c1.471,0.876,2.811,1.918,4.019,3.126c1.209,1.208,2.251,2.551,3.128,4.031c0.877,1.479,1.552,3.06,2.025,4.74
		c0.473,1.682,0.71,3.428,0.71,5.239s-0.237,3.559-0.71,5.239c-0.474,1.681-1.148,3.256-2.025,4.726s-1.919,2.809-3.128,4.016
		c-1.208,1.208-2.548,2.245-4.019,3.11c-1.471,0.866-3.048,1.535-4.729,2.009c-1.683,0.473-3.42,0.709-5.213,0.709
		s-3.53-0.236-5.212-0.709c-1.683-0.474-3.26-1.143-4.729-2.009c-1.472-0.865-2.812-1.902-4.02-3.11
		c-1.209-1.207-2.247-2.546-3.113-4.016s-1.541-3.045-2.024-4.726S751.455,693.302,751.455,691.49z M757.464,691.49
		c0,1.913,0.362,3.725,1.087,5.436s1.711,3.211,2.959,4.499s2.708,2.315,4.379,3.08c1.671,0.766,3.462,1.147,5.375,1.147
		c1.892,0,3.669-0.382,5.329-1.147c1.661-0.765,3.11-1.792,4.349-3.08s2.214-2.788,2.929-4.499s1.072-3.522,1.072-5.436
		c0-1.872-0.357-3.674-1.072-5.405c-0.715-1.73-1.69-3.256-2.929-4.574s-2.688-2.371-4.349-3.156
		c-1.66-0.785-3.438-1.178-5.329-1.178c-1.913,0-3.704,0.393-5.375,1.178s-3.131,1.838-4.379,3.156s-2.234,2.844-2.959,4.574
		C757.826,687.816,757.464,689.618,757.464,691.49z"/>
	<path fill="#5B4824" d="M803.331,691.49c0-2.718,0.528-5.279,1.586-7.685s2.488-4.515,4.291-6.326
		c1.804-1.813,3.903-3.241,6.301-4.288s4.946-1.57,7.646-1.57c1.793,0,3.53,0.237,5.213,0.71c1.682,0.473,3.259,1.147,4.729,2.022
		c1.471,0.876,2.811,1.918,4.019,3.126c1.209,1.208,2.251,2.551,3.128,4.031c0.877,1.479,1.552,3.06,2.025,4.74
		c0.473,1.682,0.71,3.428,0.71,5.239s-0.237,3.559-0.71,5.239c-0.474,1.681-1.148,3.256-2.025,4.726s-1.919,2.809-3.128,4.016
		c-1.208,1.208-2.548,2.245-4.019,3.11c-1.471,0.866-3.048,1.535-4.729,2.009c-1.683,0.473-3.42,0.709-5.213,0.709
		s-3.53-0.236-5.212-0.709c-1.683-0.474-3.26-1.143-4.729-2.009c-1.472-0.865-2.812-1.902-4.02-3.11
		c-1.209-1.207-2.247-2.546-3.113-4.016s-1.541-3.045-2.024-4.726S803.331,693.302,803.331,691.49z M809.34,691.49
		c0,1.913,0.362,3.725,1.087,5.436s1.711,3.211,2.959,4.499s2.708,2.315,4.379,3.08c1.671,0.766,3.462,1.147,5.375,1.147
		c1.892,0,3.669-0.382,5.329-1.147c1.661-0.765,3.11-1.792,4.349-3.08s2.214-2.788,2.929-4.499s1.072-3.522,1.072-5.436
		c0-1.872-0.357-3.674-1.072-5.405c-0.715-1.73-1.69-3.256-2.929-4.574s-2.688-2.371-4.349-3.156
		c-1.66-0.785-3.438-1.178-5.329-1.178c-1.913,0-3.704,0.393-5.375,1.178s-3.131,1.838-4.379,3.156s-2.234,2.844-2.959,4.574
		C809.702,687.816,809.34,689.618,809.34,691.49z"/>
	<path fill="#5B4824" d="M862.696,709.275c0,0.887-0.443,1.329-1.328,1.329h-3.11c-0.947,0-1.42-0.442-1.42-1.329V662.2
		c0-0.402,0.131-0.725,0.393-0.967c0.262-0.241,0.574-0.362,0.937-0.362h3.141c0.423,0,0.76,0.131,1.012,0.393
		c0.251,0.262,0.377,0.574,0.377,0.937V709.275z"/>
</g>
<text transform="matrix(1 0 0 1 551.9756 599.0186)" fill="#5B4824" font-family="'Cocogoose-Light'" font-size="182.4867" letter-spacing="18">S</text>
<g>
	<path fill="#5B4824" d="M322.212,732.366c0.135,0,0.257,0.041,0.366,0.124c0.109,0.082,0.171,0.206,0.186,0.371V734
		c0,0.15-0.045,0.28-0.135,0.39c-0.09,0.108-0.229,0.163-0.417,0.163h-4.689v14.034c0,0.136-0.045,0.256-0.135,0.36
		c-0.09,0.105-0.218,0.158-0.383,0.158h-1.138c-0.135,0-0.256-0.049-0.361-0.146c-0.105-0.098-0.158-0.222-0.158-0.372v-14.034
		h-4.712c-0.15,0-0.274-0.045-0.372-0.136c-0.098-0.09-0.146-0.229-0.146-0.417v-1.139c0-0.149,0.049-0.271,0.146-0.36
		s0.222-0.135,0.372-0.135H322.212z"/>
	<path fill="#5B4824" d="M352.76,732.861c0-0.135,0.045-0.251,0.135-0.349s0.21-0.146,0.361-0.146h1.139
		c0.135,0,0.259,0.045,0.372,0.135s0.169,0.211,0.169,0.36v15.748c0,0.331-0.181,0.496-0.541,0.496h-1.139
		c-0.331,0-0.496-0.165-0.496-0.496v-7.237h-9.503v7.237c0,0.331-0.18,0.496-0.541,0.496h-1.138c-0.331,0-0.496-0.165-0.496-0.496
		v-15.748c0-0.135,0.045-0.251,0.135-0.349s0.21-0.146,0.361-0.146h1.161c0.135,0,0.255,0.049,0.36,0.146
		c0.105,0.098,0.158,0.214,0.158,0.349v6.324h9.503V732.861z"/>
	<path fill="#5B4824" d="M385.608,732.366c0.346,0,0.519,0.18,0.519,0.541v1.115c0,0.144-0.043,0.268-0.129,0.372
		c-0.086,0.105-0.224,0.158-0.412,0.158H376.5v4.633h7.146c0.135,0,0.252,0.04,0.35,0.118c0.098,0.079,0.146,0.213,0.146,0.4v1.149
		c0,0.136-0.042,0.256-0.124,0.361s-0.207,0.157-0.372,0.157H376.5v5.547h9.13c0.346,0,0.519,0.177,0.519,0.529v1.161
		c0,0.331-0.165,0.496-0.496,0.496h-10.844c-0.331,0-0.496-0.158-0.496-0.474v-15.747c0-0.346,0.165-0.519,0.496-0.519H385.608z"/>
	<path fill="#5B4824" d="M427.429,732.885c0-0.346,0.165-0.519,0.496-0.519h10.641c0.346,0,0.519,0.18,0.519,0.541v1.115
		c0,0.144-0.047,0.268-0.141,0.372c-0.094,0.105-0.22,0.158-0.377,0.158h-8.95v5.535c1.195,0,2.371,0.002,3.528,0.005
		c1.157,0.004,2.337,0.006,3.54,0.006c0.135,0,0.251,0.041,0.349,0.124s0.146,0.218,0.146,0.406v1.138
		c0,0.136-0.043,0.256-0.129,0.361s-0.208,0.157-0.366,0.157h-7.068v6.347c0,0.315-0.177,0.474-0.53,0.474h-1.161
		c-0.331,0-0.496-0.158-0.496-0.474V732.885z"/>
	<path fill="#5B4824" d="M459.318,742.185c0,0.714,0.103,1.379,0.31,1.995c0.207,0.616,0.511,1.151,0.913,1.606
		c0.402,0.454,0.892,0.812,1.471,1.07c0.579,0.26,1.24,0.389,1.984,0.389c0.796,0,1.492-0.131,2.085-0.395
		c0.593-0.263,1.084-0.621,1.471-1.076c0.387-0.454,0.677-0.99,0.868-1.606s0.288-1.277,0.288-1.983v-9.323
		c0-0.135,0.051-0.251,0.152-0.349c0.102-0.098,0.228-0.146,0.378-0.146h1.082c0.143,0,0.274,0.045,0.395,0.135
		s0.18,0.211,0.18,0.36v9.627c0,1.015-0.18,1.944-0.541,2.79c-0.36,0.846-0.855,1.571-1.482,2.176s-1.36,1.076-2.198,1.415
		c-0.838,0.338-1.73,0.507-2.677,0.507c-0.947,0-1.837-0.181-2.672-0.541c-0.834-0.36-1.565-0.854-2.192-1.482
		c-0.627-0.627-1.122-1.358-1.482-2.192c-0.36-0.834-0.541-1.725-0.541-2.672v-9.627c0-0.112,0.043-0.223,0.13-0.332
		c0.086-0.108,0.201-0.163,0.344-0.163h1.206c0.113,0,0.229,0.049,0.35,0.146c0.12,0.098,0.18,0.214,0.18,0.349V742.185z"/>
	<path fill="#5B4824" d="M500.959,732.366c0.135,0,0.257,0.041,0.366,0.124c0.109,0.082,0.171,0.206,0.186,0.371V734
		c0,0.15-0.045,0.28-0.135,0.39c-0.09,0.108-0.229,0.163-0.417,0.163h-4.689v14.034c0,0.136-0.045,0.256-0.135,0.36
		c-0.09,0.105-0.218,0.158-0.383,0.158h-1.138c-0.135,0-0.256-0.049-0.361-0.146c-0.105-0.098-0.158-0.222-0.158-0.372v-14.034
		h-4.712c-0.15,0-0.274-0.045-0.372-0.136c-0.098-0.09-0.146-0.229-0.146-0.417v-1.139c0-0.149,0.049-0.271,0.146-0.36
		s0.222-0.135,0.372-0.135H500.959z"/>
	<path fill="#5B4824" d="M521.813,742.185c0,0.714,0.103,1.379,0.31,1.995c0.207,0.616,0.511,1.151,0.913,1.606
		c0.402,0.454,0.892,0.812,1.471,1.07c0.579,0.26,1.24,0.389,1.984,0.389c0.796,0,1.492-0.131,2.085-0.395
		c0.593-0.263,1.084-0.621,1.471-1.076c0.387-0.454,0.677-0.99,0.868-1.606s0.288-1.277,0.288-1.983v-9.323
		c0-0.135,0.051-0.251,0.152-0.349c0.102-0.098,0.228-0.146,0.378-0.146h1.082c0.143,0,0.274,0.045,0.395,0.135
		s0.18,0.211,0.18,0.36v9.627c0,1.015-0.18,1.944-0.541,2.79c-0.36,0.846-0.855,1.571-1.482,2.176s-1.36,1.076-2.198,1.415
		c-0.838,0.338-1.73,0.507-2.677,0.507c-0.947,0-1.837-0.181-2.672-0.541c-0.834-0.36-1.565-0.854-2.192-1.482
		c-0.627-0.627-1.122-1.358-1.482-2.192c-0.36-0.834-0.541-1.725-0.541-2.672v-9.627c0-0.112,0.043-0.223,0.13-0.332
		c0.086-0.108,0.201-0.163,0.344-0.163h1.206c0.113,0,0.229,0.049,0.35,0.146c0.12,0.098,0.18,0.214,0.18,0.349V742.185z"/>
	<path fill="#5B4824" d="M552.575,732.907c0-0.361,0.165-0.541,0.496-0.541h6.504c0.752,0,1.45,0.141,2.097,0.422
		c0.646,0.282,1.21,0.665,1.691,1.15c0.48,0.484,0.858,1.052,1.133,1.702s0.411,1.343,0.411,2.08c0,0.525-0.073,1.031-0.22,1.516
		s-0.352,0.934-0.614,1.347c-0.264,0.414-0.579,0.784-0.947,1.11c-0.368,0.327-0.777,0.6-1.229,0.817l2.976,6.099v0.146
		c0,0.233-0.139,0.35-0.417,0.35h-1.363c-0.233,0-0.414-0.139-0.541-0.417l-2.706-5.682c-0.06,0.008-0.126,0.012-0.197,0.012
		s-0.173,0.002-0.304,0.006c-0.132,0.004-0.307,0.005-0.524,0.005s-0.506,0-0.862,0c-0.357,0-0.795,0-1.313,0s-1.146,0-1.883,0v5.58
		c0,0.331-0.173,0.496-0.519,0.496h-1.172c-0.331,0-0.496-0.165-0.496-0.496V732.907z M562.743,737.697
		c0-0.413-0.081-0.812-0.242-1.194c-0.162-0.384-0.384-0.722-0.665-1.015c-0.282-0.293-0.617-0.528-1.004-0.704
		c-0.387-0.177-0.806-0.266-1.257-0.266h-4.813v6.358h4.858c0.443,0,0.857-0.087,1.24-0.26c0.384-0.173,0.714-0.405,0.992-0.699
		c0.277-0.293,0.496-0.631,0.653-1.014C562.664,738.521,562.743,738.119,562.743,737.697z"/>
	<path fill="#5B4824" d="M595.151,732.366c0.346,0,0.519,0.18,0.519,0.541v1.115c0,0.144-0.043,0.268-0.13,0.372
		c-0.086,0.105-0.224,0.158-0.411,0.158h-9.086v4.633h7.147c0.135,0,0.251,0.04,0.349,0.118c0.098,0.079,0.146,0.213,0.146,0.4
		v1.149c0,0.136-0.041,0.256-0.123,0.361c-0.083,0.105-0.207,0.157-0.372,0.157h-7.147v5.547h9.131c0.346,0,0.519,0.177,0.519,0.529
		v1.161c0,0.331-0.165,0.496-0.496,0.496h-10.844c-0.331,0-0.496-0.158-0.496-0.474v-15.747c0-0.346,0.165-0.519,0.496-0.519
		H595.151z"/>
	<path fill="#5B4824" d="M636.961,732.861c0-0.135,0.044-0.251,0.13-0.349c0.087-0.098,0.209-0.146,0.366-0.146h1.173
		c0.135,0,0.255,0.045,0.36,0.135s0.158,0.211,0.158,0.36v15.748c0,0.331-0.173,0.496-0.519,0.496h-1.173
		c-0.33,0-0.496-0.165-0.496-0.496V732.861z"/>
	<path fill="#5B4824" d="M668.186,736.019c-0.105-0.068-0.278-0.199-0.519-0.395c-0.241-0.195-0.536-0.395-0.885-0.598
		c-0.35-0.203-0.743-0.386-1.179-0.547s-0.905-0.242-1.409-0.242c-0.594,0-1.104,0.071-1.532,0.214
		c-0.429,0.143-0.782,0.333-1.06,0.569c-0.278,0.236-0.483,0.504-0.615,0.801c-0.131,0.297-0.197,0.596-0.197,0.896
		c0,0.421,0.14,0.774,0.417,1.06c0.278,0.286,0.646,0.534,1.105,0.744c0.458,0.211,0.979,0.4,1.561,0.569
		c0.583,0.169,1.177,0.348,1.781,0.535c0.605,0.188,1.199,0.398,1.781,0.632c0.582,0.232,1.103,0.522,1.562,0.868
		c0.458,0.346,0.826,0.759,1.104,1.239c0.278,0.481,0.417,1.063,0.417,1.747c0,0.789-0.163,1.505-0.49,2.147
		s-0.774,1.191-1.342,1.646c-0.567,0.454-1.234,0.806-2.001,1.054s-1.589,0.372-2.469,0.372c-0.586,0-1.166-0.066-1.741-0.197
		c-0.575-0.132-1.127-0.323-1.657-0.575c-0.529-0.252-1.023-0.558-1.482-0.919c-0.458-0.36-0.867-0.773-1.229-1.239
		c-0.098-0.12-0.145-0.241-0.141-0.361s0.069-0.232,0.197-0.338l0.891-0.744c0.128-0.105,0.252-0.152,0.372-0.141
		c0.12,0.011,0.229,0.077,0.326,0.197l0.147,0.146c0.315,0.354,0.674,0.659,1.076,0.919c0.401,0.259,0.804,0.474,1.206,0.643
		s0.787,0.295,1.155,0.377c0.368,0.083,0.681,0.124,0.936,0.124c0.459,0,0.929-0.06,1.409-0.18s0.921-0.305,1.319-0.553
		c0.397-0.248,0.725-0.562,0.98-0.941c0.255-0.379,0.383-0.824,0.383-1.336c0-0.428-0.126-0.79-0.377-1.088
		c-0.252-0.296-0.592-0.556-1.021-0.777s-0.93-0.421-1.505-0.598s-1.189-0.362-1.843-0.558c-0.902-0.263-1.676-0.539-2.322-0.829
		c-0.646-0.289-1.178-0.608-1.595-0.958c-0.418-0.35-0.724-0.74-0.919-1.172c-0.195-0.433-0.293-0.919-0.293-1.46
		c0-0.684,0.137-1.31,0.411-1.877s0.663-1.058,1.167-1.471c0.503-0.413,1.11-0.734,1.82-0.964s1.505-0.344,2.384-0.344
		c0.474,0,0.966,0.06,1.477,0.18c0.512,0.121,1.009,0.288,1.494,0.502c0.484,0.214,0.939,0.47,1.364,0.767
		c0.424,0.297,0.79,0.626,1.099,0.986c0.105,0.112,0.159,0.231,0.163,0.355s-0.055,0.242-0.175,0.354l-0.8,0.767
		c-0.12,0.113-0.242,0.165-0.366,0.158C668.405,736.18,668.29,736.123,668.186,736.019z"/>
	<path fill="#5B4824" d="M724.627,749.105c-0.166,0-0.309-0.083-0.429-0.248l-9.841-13.188v12.94c0,0.331-0.173,0.496-0.519,0.496
		H712.7c-0.33,0-0.496-0.165-0.496-0.496v-15.725c0-0.15,0.046-0.274,0.136-0.372s0.21-0.146,0.36-0.146h1.511
		c0.195,0,0.354,0.082,0.474,0.248l9.593,12.749v-12.58c0.045-0.278,0.21-0.417,0.496-0.417h1.139c0.135,0,0.261,0.045,0.377,0.135
		c0.117,0.09,0.175,0.211,0.175,0.36v15.748c0,0.331-0.184,0.496-0.552,0.496H724.627z"/>
	<path fill="#5B4824" d="M753.913,732.141c0.789,0,1.55,0.102,2.282,0.304c0.733,0.203,1.417,0.493,2.052,0.868
		c0.635,0.376,1.216,0.825,1.741,1.348c0.526,0.522,0.976,1.104,1.348,1.747s0.661,1.332,0.868,2.068
		c0.206,0.736,0.31,1.503,0.31,2.3c0,0.789-0.102,1.55-0.305,2.282c-0.202,0.732-0.492,1.417-0.867,2.052
		c-0.376,0.635-0.825,1.214-1.348,1.736s-1.103,0.969-1.741,1.341s-1.326,0.66-2.063,0.862c-0.736,0.203-1.503,0.305-2.299,0.305
		c-0.797,0-1.562-0.102-2.294-0.305c-0.733-0.202-1.417-0.492-2.052-0.868c-0.636-0.375-1.214-0.824-1.736-1.347
		s-0.969-1.101-1.341-1.736c-0.372-0.635-0.66-1.318-0.862-2.051c-0.203-0.733-0.305-1.498-0.305-2.294
		c0-0.789,0.102-1.551,0.305-2.283c0.202-0.732,0.491-1.418,0.867-2.057s0.825-1.222,1.348-1.748
		c0.522-0.525,1.103-0.975,1.741-1.347s1.324-0.661,2.058-0.868C752.352,732.244,753.116,732.141,753.913,732.141z M747.465,740.719
		c0,0.594,0.077,1.163,0.231,1.708c0.153,0.545,0.37,1.056,0.648,1.533c0.277,0.477,0.612,0.911,1.003,1.302
		s0.824,0.726,1.302,1.003c0.478,0.278,0.988,0.494,1.533,0.648s1.114,0.231,1.708,0.231c0.586,0,1.153-0.077,1.702-0.231
		c0.548-0.154,1.06-0.37,1.533-0.648c0.473-0.277,0.905-0.612,1.296-1.003s0.726-0.825,1.003-1.302
		c0.278-0.478,0.494-0.988,0.648-1.533s0.231-1.114,0.231-1.708c0-0.887-0.169-1.719-0.508-2.497
		c-0.338-0.777-0.797-1.456-1.375-2.034c-0.579-0.579-1.257-1.037-2.035-1.376c-0.777-0.338-1.609-0.507-2.496-0.507
		c-0.594,0-1.163,0.077-1.708,0.231c-0.545,0.153-1.056,0.37-1.533,0.647c-0.478,0.278-0.911,0.613-1.302,1.004
		s-0.726,0.822-1.003,1.296c-0.278,0.474-0.495,0.984-0.648,1.533C747.542,739.565,747.465,740.133,747.465,740.719z"/>
	<path fill="#5B4824" d="M793.072,732.614c0.068-0.166,0.173-0.248,0.316-0.248h1.465c0.188,0,0.313,0.035,0.378,0.106
		c0.063,0.071,0.096,0.16,0.096,0.266v0.146l-2.581,6.222l2.75,6.696l5.265-13.02c0.104-0.278,0.304-0.417,0.598-0.417h1.16
		c0.188,0,0.317,0.035,0.39,0.106c0.071,0.071,0.106,0.16,0.106,0.266v0.101l-6.571,15.793c0,0.008-0.01,0.036-0.028,0.085
		s-0.051,0.102-0.096,0.157c-0.045,0.057-0.105,0.109-0.181,0.158s-0.165,0.073-0.271,0.073h-0.767
		c-0.188,0-0.329-0.049-0.423-0.146s-0.141-0.188-0.141-0.271l-2.908-6.944l-2.875,6.888c-0.037,0.128-0.103,0.239-0.197,0.333
		c-0.094,0.094-0.201,0.141-0.321,0.141h-0.8c-0.158,0-0.282-0.051-0.372-0.152s-0.154-0.193-0.191-0.276l-6.55-15.792
		c-0.008-0.016-0.017-0.038-0.028-0.068c-0.011-0.029-0.017-0.063-0.017-0.102c0-0.232,0.146-0.349,0.439-0.349h1.263
		c0.112,0,0.218,0.037,0.315,0.112s0.177,0.195,0.237,0.36l5.275,12.964L793.072,732.614z"/>
</g>
<path fill="#5B4824" d="M542.729,568.808h-83.354v-88.499h93.682c1.563,0,3.099,0.093,4.61,0.263
	c0.445-1.288,0.962-2.544,1.556-3.77c2.39-4.943,5.777-9.215,10.165-12.817c4.385-3.6,9.674-6.399,15.862-8.398
	c3.939-1.271,8.184-2.135,12.724-2.596c5.085-5.59,9.217-11.97,12.385-19.155c4.132-9.377,6.203-19.375,6.203-29.992
	c0-10.614-1.917-20.458-5.739-29.53c-3.828-9.072-9.139-16.94-15.922-23.606c-6.79-6.664-14.753-11.909-23.885-15.737
	c-9.138-3.824-19.071-5.74-29.81-5.74H432.529c-5.679,0-8.517,2.962-8.517,8.887v257.903c0,2.717,0.801,4.753,2.407,6.111
	c1.603,1.358,3.639,2.037,6.11,2.037h120.897c7.256,0,14.157-0.99,20.733-2.911C558.766,592.761,548.313,578.268,542.729,568.808z
	 M459.375,364.595h81.462c5.801,0,11.107,0.958,15.923,2.869c4.813,1.916,8.979,4.63,12.496,8.147
	c3.518,3.518,6.231,7.683,8.146,12.498c1.912,4.813,2.868,10.061,2.868,15.736c0,5.804-1.017,11.201-3.054,16.201
	c-2.034,4.998-4.813,9.349-8.33,13.053c-3.516,3.703-7.715,6.604-12.589,8.701c-4.878,2.101-10.156,3.147-15.829,3.147h-81.093
	V364.595z"/>
</svg>
